<svg width="17" height="20" viewBox="0 0 17 20" fill="none" xmlns="http://www.w3.org/2000/svg">
<g id="Layer_1" clip-path="url(#clip0_374_2753)">
<path id="Vector" d="M15.3131 7.12474V17.9536H1.82992V7.12474H15.3131ZM15.8749 5.41492H1.26813C0.650149 5.41492 0.144531 5.92786 0.144531 6.5548V18.5235C0.144531 19.1505 0.650149 19.6634 1.26813 19.6634H15.8749C16.4928 19.6634 16.9985 19.1505 16.9985 18.5235V6.5548C16.9985 5.92786 16.4928 5.41492 15.8749 5.41492Z" fill="white"/>
<path id="Vector_2" d="M13.9085 6.55541H12.2231C12.2231 3.88239 10.5827 1.71092 8.57145 1.71092C6.56022 1.71092 4.91977 3.88239 4.91977 6.55541H3.23438C3.23438 2.94199 5.62763 0.00109863 8.57145 0.00109863C11.5153 0.00109863 13.9085 2.94199 13.9085 6.55541Z" fill="white"/>
</g>
<defs>
<clipPath id="clip0_374_2753">
<rect width="16.8539" height="19.6629" fill="white" transform="translate(0.144531)"/>
</clipPath>
</defs>
</svg>
