<svg width="246" height="39" viewBox="0 0 246 39" fill="none" xmlns="http://www.w3.org/2000/svg">
<g clip-path="url(#clip0_478_17380)">
<path d="M49.709 16.0865C49.709 11.1471 46.3792 8.47168 41.1805 8.47168C36.3557 8.47168 32.4142 10.9756 32.4142 15.7434H36.0499C36.0499 13.2738 38.1225 11.4901 41.1466 11.4901C44.3745 11.4901 45.9714 12.9308 45.9714 16.0522V17.5614L39.2098 17.9387C33.1278 18.2817 31.293 22.0205 31.293 24.8675C31.293 28.2632 33.8413 31.659 38.938 31.659C42.0979 31.659 44.8162 30.1498 46.1413 27.9888H46.3792C46.8548 30.0469 48.2479 31.3846 50.9662 31.3846H52.0535V28.1603H49.641V16.0522L49.709 16.0865ZM46.0054 21.7461C46.0054 25.5878 43.593 28.5719 39.5496 28.5719C36.3897 28.5719 35.1325 26.6168 35.1325 24.7989C35.1325 22.0891 37.375 20.9229 39.5836 20.7857L46.0054 20.4427V21.7461Z" fill="white"/>
<path d="M137.916 0.376953H132.921L118.447 16.9442V0.376953H114.539V31.0762H118.447V22.3638L124.019 16.0867L133.805 31.0762H138.561L126.703 12.9996L137.916 0.376953Z" fill="white"/>
<path d="M66.8347 8.47168C64.2524 8.47168 60.9905 9.77511 60.0052 12.3477L59.7334 9.08909H56.4375V38.9994H60.1751V28.4004C61.2624 30.63 64.0825 31.7276 66.8008 31.7276C69.519 31.7276 71.5916 30.7672 73.0867 29.4295C75.4311 27.3028 76.5184 23.8384 76.5184 20.0653C76.5184 16.2923 75.4311 13.068 73.2566 10.907C71.7615 9.4321 69.553 8.50598 66.8008 8.50598M70.7762 26.6168C69.7568 27.783 68.3298 28.5719 66.1892 28.5719C64.5242 28.5719 63.369 27.8859 62.4516 27.097C60.5488 25.4849 60.0052 22.8437 60.0052 20.0996C60.0052 17.3556 60.5828 14.7144 62.4516 13.1023C63.369 12.3134 64.5242 11.6617 66.1892 11.6617C68.3298 11.6617 69.8248 12.4506 70.8441 13.6511C72.2032 15.2975 72.6789 17.7329 72.6789 20.0996C72.6789 22.4664 72.2032 24.9704 70.7422 26.6511" fill="white"/>
<path d="M162.144 9.08887H158.305V31.0757H162.144V9.08887Z" fill="white"/>
<path d="M162.38 0.376953H158.031V4.73315H162.38V0.376953Z" fill="white"/>
<path d="M179.539 18.6247L174.307 17.8015C172.506 17.4928 171.283 16.7039 171.283 15.0574C171.283 12.8965 173.389 11.5588 176.108 11.5588C178.826 11.5588 180.932 12.9994 181.034 15.469H184.772C184.772 11.25 181.034 8.47168 176.108 8.47168C171.657 8.47168 167.715 11.2157 167.715 15.2289C167.715 18.5904 169.958 20.5799 173.22 21.0944L178.146 21.8833C180.423 22.2263 181.68 23.2896 181.68 24.9361C181.68 27.4057 179.166 28.6062 176.481 28.6062C173.186 28.6062 170.773 27.097 170.671 24.1128H166.934C166.934 28.7778 171.011 31.6933 176.311 31.6933C181.612 31.6933 185.316 29.2237 185.316 24.696C185.316 21.3688 182.733 19.1735 179.539 18.659" fill="white"/>
<path d="M196.391 2.57227H192.789V9.05512H187.727V12.2108H192.789V27.0973C192.789 29.4641 194.216 31.1105 196.867 31.1105H201.657V27.7833H196.425V12.1765H202.541V9.02081H196.425V2.57227H196.391Z" fill="white"/>
<path d="M211.072 0.376953H206.723V4.73315H211.072V0.376953Z" fill="white"/>
<path d="M210.832 9.08887H206.992V31.0757H210.832V9.08887Z" fill="white"/>
<path d="M22.2215 13.72H3.90746V0.376953H0V31.0762H3.90746V17.4244H22.2215V31.0762H26.129V0.376953H22.2215V13.72Z" fill="white"/>
<path d="M146.378 13.6166H146.14V9.08887H142.301V31.0757H146.14V16.978C146.14 14.6456 148.655 12.8963 152.766 12.8963H154.329V9.08887H153.513C149.47 9.08887 147.228 11.2841 146.344 13.6166" fill="white"/>
<path d="M228.06 8.50586C224.39 8.50586 222.181 10.2895 220.992 13.0679H220.788V9.08897H217.051V31.0758H220.788V16.5665C220.788 13.4452 223.846 11.9359 226.904 11.9359C230.574 11.9359 232.579 14.1655 232.579 18.5217V31.0758H236.316V17.8357C236.316 11.9016 233.122 8.50586 228.026 8.50586" fill="white"/>
<path d="M98.502 16.0865C98.502 11.1471 95.1721 8.47168 89.9735 8.47168C85.1486 8.47168 81.2072 10.9756 81.2072 15.7434H84.8428C84.8428 13.2738 86.9155 11.4901 89.9395 11.4901C93.1674 11.4901 94.7644 12.9308 94.7644 16.0522V17.5614L88.0028 17.9387C81.9207 18.2817 80.0859 22.0205 80.0859 24.8675C80.0859 28.2632 82.6343 31.659 87.731 31.659C90.8909 31.659 93.6091 30.1498 94.9343 27.9888H95.1721C95.6478 30.0469 97.0409 31.3846 99.7591 31.3846H100.846V28.1603H98.434V16.0522L98.502 16.0865ZM94.7984 21.7461C94.7984 25.5878 92.3859 28.5719 88.3426 28.5719C85.1826 28.5719 83.9254 26.6168 83.9254 24.7989C83.9254 22.0891 86.168 20.9229 88.3765 20.7857L94.7984 20.4427V21.7461Z" fill="white"/>
<path d="M243.484 2.12695H242.634L240.12 5.00822V2.12695H239.406V7.47788H240.12V5.96864L241.071 4.87102L242.77 7.47788H243.586L241.547 4.3222L243.484 2.12695Z" fill="white"/>
<path d="M241.241 9.60422C238.625 9.60422 236.484 7.44327 236.484 4.80211C236.484 2.16095 238.625 0 241.241 0C243.858 0 245.998 2.16095 245.998 4.80211C245.998 7.44327 243.858 9.60422 241.241 9.60422ZM241.241 0.514512C238.897 0.514512 237.028 2.43536 237.028 4.80211C237.028 7.16887 238.931 9.08971 241.241 9.08971C243.552 9.08971 245.455 7.16887 245.455 4.80211C245.455 2.43536 243.552 0.514512 241.241 0.514512Z" fill="white"/>
</g>
<defs>
<clipPath id="clip0_478_17380">
<rect width="246" height="39" fill="white"/>
</clipPath>
</defs>
</svg>
