<svg width="20" height="20" viewBox="0 0 20 20" fill="none" xmlns="http://www.w3.org/2000/svg">
<g id="Layer_1" clip-path="url(#clip0_374_2750)">
<path id="Vector" d="M7.73638 1.54783C9.39308 1.54783 10.9466 2.19297 12.1181 3.35937C13.2897 4.53093 13.9297 6.08441 13.9297 7.74112C13.9297 9.39782 13.2845 10.9513 12.1181 12.1229C10.9466 13.2944 9.39308 13.9344 7.73638 13.9344C6.07967 13.9344 4.52619 13.2893 3.35463 12.1229C0.944405 9.70749 0.944405 5.77475 3.35463 3.35937C4.52619 2.18781 6.07967 1.54783 7.73638 1.54783ZM7.73638 -0.000488281C5.75452 -0.000488281 3.77267 0.753028 2.26048 2.26522C-0.76391 5.28961 -0.76391 10.1926 2.26048 13.2119C3.77267 14.724 5.75452 15.4776 7.73638 15.4776C9.71823 15.4776 11.7001 14.724 13.2123 13.2119C16.2367 10.1875 16.2367 5.28445 13.2123 2.26522C11.7001 0.753028 9.71823 -0.000488281 7.73638 -0.000488281Z" fill="white"/>
<path id="Vector_2" d="M18.3215 19.1008C18.1254 19.1008 17.9241 19.0234 17.7745 18.8737L12.4276 13.5269C12.1231 13.2224 12.1231 12.7321 12.4276 12.4327C12.7321 12.1282 13.2224 12.1282 13.5217 12.4327L18.8686 17.7796C19.1731 18.0841 19.1731 18.5744 18.8686 18.8737C18.7189 19.0234 18.5177 19.1008 18.3215 19.1008Z" fill="white"/>
</g>
<defs>
<clipPath id="clip0_374_2750">
<rect width="19.1011" height="19.1011" fill="white"/>
</clipPath>
</defs>
</svg>
