<svg width="20" height="21" viewBox="0 0 20 21" fill="none" xmlns="http://www.w3.org/2000/svg">
<g id="user">
<path id="Ellipse 328 (Stroke)" fill-rule="evenodd" clip-rule="evenodd" d="M10.1264 1.92667C7.56751 1.92667 5.49308 4.0011 5.49308 6.56003C5.49308 9.11897 7.56751 11.1934 10.1264 11.1934C12.6854 11.1934 14.7598 9.11897 14.7598 6.56003C14.7598 4.0011 12.6854 1.92667 10.1264 1.92667ZM4.56641 6.56003C4.56641 3.48931 7.05572 1 10.1264 1C13.1972 1 15.6865 3.48931 15.6865 6.56003C15.6865 9.63076 13.1972 12.1201 10.1264 12.1201C7.05572 12.1201 4.56641 9.63076 4.56641 6.56003Z" fill="white" stroke="white" stroke-width="0.561798" stroke-linejoin="bevel"/>
<path id="Ellipse 328 (Stroke)_2" fill-rule="evenodd" clip-rule="evenodd" d="M10.1248 12.1213C5.89373 12.1213 2.40413 14.7827 1.53274 18.2747C1.37762 18.8964 1.90212 19.5346 2.7114 19.5346H17.5382C18.3474 19.5346 18.8719 18.8964 18.7168 18.2747C17.8454 14.7827 14.3558 12.1213 10.1248 12.1213ZM0.633636 18.0504C1.62033 14.0963 5.52143 11.1946 10.1248 11.1946C14.7281 11.1946 18.6292 14.0963 19.6159 18.0504C19.9564 19.415 18.776 20.4613 17.5382 20.4613H2.7114C1.47354 20.4613 0.29312 19.415 0.633636 18.0504Z" fill="white" stroke="white" stroke-width="0.561798" stroke-linejoin="round"/>
</g>
</svg>
